# File created by Blade
# Date/Time:  Wed Sep 24 19:53:44 2014
# Frame Rate: 120.000 fps
#------------------------------------------------------
:FULLY-SPECIFIED
:DEGREES
2226
root -6.198972 32.863831 -4.473812 9.207999 5.999390 -0.834090
Spine -15.788883 3.064295 2.309690
Head -6.906422 5.104507 14.484705
LeftShoulder -11.879036 17.200352 25.170129
LeftArm 25.854805 -46.508764 -24.341179
LeftForeArm -11.741633 -0.000000 137.122799
LeftHand -10.681678 -0.000000 -17.717523
LeftHandThumb1 -26.253704 0.000000 33.147579
RightShoulder -18.996053 12.122773 -15.275685
RightArm -11.669320 -9.894982 75.877925
RightForeArm -22.261000 -0.000000 19.652325
RightHand -7.678180 0.000000 9.113575
RightHandThumb1 -24.326973 -0.000000 -32.862282
LeftUpLeg -3.942177 4.813339 4.922101
LeftLeg -2.151252 -0.000000 0.000000
LeftFoot -8.729947 3.828581 -18.854261
LeftToeBase 11.880637 -0.000000 -0.000000
RightUpLeg -4.654758 -10.513487 -2.403523
RightLeg 1.990812 -0.000000 -0.000000
RightFoot -7.374454 -5.355081 -13.071843
RightToeBase -0.529559 -0.000000 0.000000
2227
root -6.198816 32.862848 -4.468329 9.264353 5.930781 -0.840103
Spine -15.832053 3.401883 2.168967
Head -6.984628 4.828132 14.646927
LeftShoulder -12.184732 17.442435 25.044472
LeftArm 25.510812 -47.072180 -24.195070
LeftForeArm -11.609756 -0.000000 138.348177
LeftHand -10.355862 -0.000000 -18.144946
LeftHandThumb1 -26.253704 0.000000 33.147579
RightShoulder -19.115095 12.041729 -15.249705
RightArm -11.716604 -9.811067 75.851191
RightForeArm -22.314905 -0.000000 19.667211
RightHand -7.756687 -0.000000 9.208934
RightHandThumb1 -24.326973 -0.000000 -32.862282
LeftUpLeg -3.972139 4.849071 4.918384
LeftLeg -2.157948 -0.000000 0.000000
LeftFoot -8.763784 3.862636 -18.885048
LeftToeBase 11.917261 -0.000000 -0.000000
RightUpLeg -4.711850 -10.490209 -2.393549
RightLeg 1.989655 -0.000000 -0.000000
RightFoot -7.392768 -5.318942 -13.086899
RightToeBase -0.522541 -0.000000 0.000000
2228
root -6.196000 32.861794 -4.460656 9.322515 5.876063 -0.846840
Spine -15.880449 3.730386 2.061610
Head -7.087526 4.550189 14.718270
LeftShoulder -12.571865 17.733000 24.776168
LeftArm 25.324912 -47.546041 -23.847607
LeftForeArm -11.614139 -0.000000 139.501001
LeftHand -10.169802 -0.000000 -18.308211
LeftHandThumb1 -26.253704 0.000000 33.147579
RightShoulder -19.170808 11.995406 -15.265134
RightArm -11.851468 -9.708640 75.847299
RightForeArm -22.361036 -0.000000 19.714342
RightHand -7.846044 -0.000000 9.114046
RightHandThumb1 -24.326973 -0.000000 -32.862282
LeftUpLeg -4.000959 4.889581 4.911043
LeftLeg -2.168835 -0.000000 0.000000
LeftFoot -8.786150 3.876580 -18.898192
LeftToeBase 11.909097 -0.000000 -0.000000
RightUpLeg -4.757261 -10.489136 -2.388823
RightLeg 1.970379 -0.000000 -0.000000
RightFoot -7.395283 -5.254088 -13.081835
RightToeBase -0.576424 -0.000000 0.000000
2229
root -6.193119 32.861110 -4.453945 9.365996 5.846934 -0.856348
Spine -15.934944 4.057337 1.936567
Head -7.108468 4.199864 14.844666
LeftShoulder -12.926879 18.174517 24.520589
LeftArm 25.230365 -47.977745 -23.487370
LeftForeArm -11.488308 -0.000000 140.623008
LeftHand -9.675520 -0.000000 -18.302595
LeftHandThumb1 -26.253704 0.000000 33.147579
RightShoulder -19.255346 11.953683 -15.266344
RightArm -11.944868 -9.717005 75.841206
RightForeArm -22.348955 -0.000000 19.645858
RightHand -7.839620 -0.000000 9.112779
RightHandThumb1 -24.326973 -0.000000 -32.862282
LeftUpLeg -4.018076 4.900539 4.911740
LeftLeg -2.186216 -0.000000 0.000000
LeftFoot -8.802902 3.892835 -19.024970
LeftToeBase 11.855631 -0.000000 -0.000000
RightUpLeg -4.801487 -10.477431 -2.383907
RightLeg 1.988166 -0.000000 -0.000000
RightFoot -7.420177 -5.211910 -13.091332
RightToeBase -0.558539 -0.000000 0.000000
